Jump_normalized_Motion_pl13
version=1
nRows=16
nColumns=43
inDegrees=yes
endheader
time		pelvis_tilt		pelvis_list		pelvis_rotation		pelvis_tx		pelvis_ty		pelvis_tz		hip_flexion_r		hip_adduction_r		hip_rotation_r		knee_angle_r		ankle_angle_r		subtalar_angle_r		mtp_angle_r		hip_flexion_l		hip_adduction_l		hip_rotation_l		knee_angle_l		ankle_angle_l		subtalar_angle_l		mtp_angle_l		lumbar_extension		lumbar_bending		lumbar_rotation		neck_flexion		neck_lateral_bending		neck_rotation		arm_flex_r		arm_add_r		arm_rot_r		elbow_flex_r		pro_sup_r		wrist_flex_r		wrist_dev_r		hand_finger_flex_r		arm_flex_l		arm_add_l		arm_rot_l		elbow_flex_l		pro_sup_l		wrist_flex_l		wrist_dev_l		hand_finger_flex_l		
0.971667		-0.848752		-9.789973		88.083221		0.062612		1.753247		1.852882		85.830490		-4.593633		2.840477		-150.465676		24.637989		5.411348		12.562643		83.601954		-7.549310		11.049641		-149.976019		23.098377		23.263751		25.980723		-53.290468		-3.763024		2.878006		38.475047		2.515161		-6.255655		68.218292		-31.260256		0.712105		83.250657		99.085748		-4.561164		-15.816878		-10.172375		80.136156		-20.345507		18.668741		60.211604		109.905851		-23.031716		-8.417194		5.384898		
0.974823		-0.752646		-10.225895		88.214915		0.062457		1.753325		1.850540		85.829142		-4.679305		2.657016		-150.358957		24.696969		5.258974		12.589717		83.630571		-7.427923		11.096019		-149.896464		23.246098		23.051704		25.924759		-52.814601		-3.570149		2.952917		38.459044		2.479754		-6.282038		69.781751		-31.447198		1.292691		83.192162		99.256994		-4.454712		-15.683513		-10.214859		81.623958		-20.181591		19.353140		59.791535		109.965480		-23.217325		-8.441297		5.394571		
0.977980		-0.654605		-10.677296		88.313175		0.062419		1.753564		1.848106		85.816120		-4.726733		2.452922		-150.229140		24.714912		5.136093		12.607503		83.656482		-7.378226		11.154011		-149.787351		23.333529		22.913665		25.868851		-52.348602		-3.409197		3.014830		38.659435		2.482490		-6.318482		71.295748		-31.382567		1.667530		83.136450		99.395870		-4.456189		-15.547436		-10.317335		83.003653		-19.905984		19.739257		59.448330		109.846016		-23.462060		-8.380772		5.385339		
0.981136		-0.416704		-11.043931		88.484939		0.062255		1.754006		1.845653		85.625268		-4.772032		2.042085		-150.058431		24.728833		4.841706		12.639140		83.617139		-7.295501		11.329051		-149.689250		23.493968		22.655723		25.720278		-51.963895		-3.091079		3.175165		38.640981		2.375227		-6.331894		72.911785		-31.549298		2.351848		83.088156		99.651063		-4.502454		-15.322453		-10.591481		84.490562		-19.826633		20.659284		59.103483		109.383413		-24.095431		-8.341614		5.424597		
0.984293		-0.371116		-11.523107		88.530708		0.062147		1.754269		1.843134		85.624860		-4.771144		1.931661		-149.917042		24.792784		4.757635		12.657037		83.617815		-7.272925		11.299401		-149.554488		23.636815		22.595204		25.673429		-51.463867		-2.994669		3.215548		38.745650		2.417998		-6.330954		74.421855		-31.625519		2.841507		83.075302		99.779862		-4.307168		-15.150750		-10.624338		85.806503		-19.656074		21.081422		58.965079		109.126402		-24.047574		-8.156864		5.561583		
0.987449		-0.328562		-11.992933		88.563897		0.062002		1.754644		1.840511		85.606451		-4.786981		1.839725		-149.767168		24.839106		4.711661		12.669340		83.573792		-7.277232		11.256760		-149.407379		23.732929		22.525009		25.649055		-50.977081		-2.905116		3.236364		38.951053		2.470554		-6.342935		75.864567		-31.497072		3.135875		83.052799		99.841692		-4.188484		-14.996017		-10.650881		87.046464		-19.414103		21.293171		58.828382		108.938414		-24.009409		-7.960224		5.621512		
0.990606		-0.238592		-12.327508		88.621728		0.061720		1.755363		1.837816		85.357954		-4.798218		1.679211		-149.572018		24.935433		4.595141		12.697990		83.359593		-7.258630		11.190015		-149.241361		23.935155		22.297781		25.594278		-50.641545		-2.731666		3.285014		38.951151		2.397787		-6.273707		77.484590		-31.559841		3.725900		83.002944		99.844972		-3.846072		-14.662852		-10.689348		88.364549		-19.445224		21.957940		58.830287		108.483781		-23.978190		-7.574548		5.729866		
0.993763		-0.191903		-12.723062		88.643523		0.061483		1.756055		1.835012		85.187942		-4.802330		1.587785		-149.380241		25.000085		4.525969		12.724194		83.187530		-7.271759		11.098590		-149.060510		24.041404		22.170572		25.550957		-50.244785		-2.627449		3.290164		39.148539		2.425040		-6.232737		78.974843		-31.360689		4.016246		82.917477		99.774461		-3.586957		-14.425052		-10.733851		89.566410		-19.317329		22.271007		58.787137		108.125078		-24.020500		-7.295236		5.773476		
0.996919		-0.157624		-13.107931		88.652182		0.061222		1.756719		1.832127		84.992600		-4.786562		1.522314		-149.192791		25.094857		4.453557		12.761551		82.987037		-7.292019		10.987826		-148.884458		24.181255		22.033427		25.534426		-49.841953		-2.533483		3.306198		39.232845		2.419911		-6.171615		80.484807		-31.212165		4.370138		82.798164		99.720124		-3.195903		-14.181496		-10.707820		90.749255		-19.224747		22.637256		58.723562		107.948168		-23.975474		-7.072664		5.806850		
1.000076		-0.091498		-13.445481		88.661895		0.060929		1.757590		1.829152		84.710301		-4.766373		1.417989		-148.966035		25.186511		4.355444		12.818888		82.714611		-7.326263		10.877071		-148.689310		24.299779		21.825570		25.511954		-49.495898		-2.406293		3.335963		39.328088		2.391243		-6.075735		82.041049		-30.989158		4.734620		82.594822		99.639656		-2.697488		-13.900081		-10.713617		91.921421		-19.177057		23.054675		58.673645		107.716726		-24.015956		-6.841731		5.791648		
1.003232		-0.029089		-13.862458		88.668564		0.060730		1.758319		1.826082		84.509263		-4.731791		1.313595		-148.744829		25.249041		4.272244		12.870008		82.537897		-7.371718		10.779678		-148.497575		24.360788		21.675620		25.508797		-49.051551		-2.305159		3.387198		39.461830		2.410121		-6.015844		83.472167		-30.702087		4.995910		82.396469		99.655475		-2.363804		-13.721289		-10.741073		93.004545		-19.004638		23.293004		58.583128		107.595088		-24.037602		-6.715112		5.736586		
1.006389		0.024087		-14.346095		88.660263		0.060554		1.758980		1.822941		84.389814		-4.702849		1.221647		-148.518514		25.308925		4.206165		12.903088		82.415085		-7.428687		10.691348		-148.292350		24.391171		21.574072		25.519356		-48.522698		-2.226035		3.456244		39.626461		2.477527		-5.988743		84.833766		-30.407446		5.248350		82.182497		99.741385		-2.171897		-13.585162		-10.733945		94.025067		-18.750015		23.429369		58.445387		107.574840		-23.988339		-6.630881		5.686439		
1.009545		0.185200		-14.721305		88.662043		0.060427		1.759796		1.819754		84.089586		-4.586327		0.982962		-148.263425		25.397038		4.019806		12.978387		82.207175		-7.520961		10.673756		-148.113720		24.418074		21.261347		25.559851		-48.099862		-2.043034		3.586331		39.578871		2.387432		-5.836137		86.346671		-30.234835		5.808176		81.907145		99.996067		-1.817777		-13.438318		-10.721830		95.096344		-18.719109		23.849600		58.354665		107.544405		-23.931963		-6.570531		5.513405		
1.012702		0.289428		-15.188212		88.667645		0.060336		1.760590		1.816447		83.889550		-4.525297		0.799955		-148.012682		25.431840		3.915220		13.023860		82.079942		-7.575949		10.625964		-147.891233		24.388896		21.121743		25.590226		-47.580510		-1.929355		3.662571		39.711944		2.432800		-5.779023		87.609898		-29.911524		6.085227		81.703391		100.167306		-1.710836		-13.344560		-10.747610		96.055988		-18.488013		23.982466		58.261448		107.496841		-23.907697		-6.505162		5.379139		
1.015859		0.500559		-15.595534		88.683848		0.060269		1.761411		1.813124		83.598917		-4.395974		0.477439		-147.738970		25.508740		3.661972		13.121339		81.920802		-7.661722		10.702507		-147.706217		24.319972		20.850387		25.674824		-47.107523		-1.707697		3.811281		39.666246		2.373952		-5.607155		89.004598		-29.735390		6.683752		81.450448		100.561663		-1.568576		-13.235009		-10.793075		97.071416		-18.459337		24.385839		58.166187		107.460901		-23.839760		-6.439208		5.107162		
1.019015		0.667891		-16.049556		88.698022		0.060219		1.762181		1.809726		83.362641		-4.282222		0.208539		-147.477747		25.569138		3.455259		13.210070		81.812559		-7.712139		10.774134		-147.505314		24.221620		20.737614		25.762505		-46.578114		-1.532633		3.915569		39.674110		2.383876		-5.488596		90.250918		-29.493214		7.131994		81.261013		100.868525		-1.535706		-13.095643		-10.849726		98.030157		-18.341998		24.642391		58.061058		107.489970		-23.779603		-6.346950		4.899077		
